<?xml version="1.0" standalone="no"?>
<!DOCTYPE svg PUBLIC "-//W3C//DTD SVG 20010904//EN"
 "http://www.w3.org/TR/2001/REC-SVG-20010904/DTD/svg10.dtd">
<svg version="1.0" xmlns="http://www.w3.org/2000/svg"
 width="287.000000pt" height="236.000000pt" viewBox="0 0 287.000000 236.000000"
 preserveAspectRatio="xMidYMid meet">

<g transform="translate(0.000000,236.000000) scale(0.100000,-0.100000)"
fill="#000000" stroke="none">
<path d="M917 2079 c-61 -14 -119 -48 -175 -103 -67 -65 -113 -146 -147 -261
-23 -75 -27 -111 -29 -220 -1 -153 19 -237 85 -341 46 -72 158 -181 253 -245
63 -43 65 -45 59 -80 -6 -45 -6 -45 132 -56 55 -4 87 -9 70 -10 -89 -9 -92
-11 -106 -58 -7 -25 -17 -45 -20 -45 -4 0 -14 19 -21 43 l-15 42 -66 3 c-54 2
-67 0 -67 -12 0 -8 5 -18 10 -21 13 -8 13 -132 0 -140 -5 -3 -10 -13 -10 -21
0 -10 12 -14 45 -14 33 0 45 4 45 14 0 8 -4 18 -10 21 -12 8 -13 102 -1 109 5
3 21 -28 37 -69 37 -96 52 -98 84 -7 31 90 40 97 40 30 0 -31 -4 -60 -10 -63
-5 -3 -10 -13 -10 -21 0 -10 14 -14 55 -14 41 0 55 4 55 14 0 8 -4 18 -10 21
-30 18 8 182 39 170 7 -3 20 0 28 7 16 13 16 18 -13 -102 -8 -36 -18 -75 -21
-87 -5 -21 -2 -23 41 -23 33 0 46 4 46 14 0 8 -4 18 -10 21 -15 9 -12 22 7 29
9 4 23 0 32 -9 10 -10 11 -15 3 -15 -7 0 -12 -11 -12 -25 0 -24 3 -25 56 -25
53 0 56 1 50 23 -3 12 -16 63 -30 112 -26 97 -25 118 4 85 13 -15 20 -17 23
-8 4 8 8 5 12 -10 4 -12 11 -22 16 -22 12 0 11 -127 -1 -135 -6 -3 -10 -15
-10 -26 0 -21 16 -23 119 -13 58 7 61 8 61 34 0 16 -7 30 -16 34 -25 10 -34 7
-34 -9 0 -8 -7 -15 -15 -15 -12 0 -15 14 -15 65 0 51 3 65 15 65 8 0 15 7 15
15 0 30 17 14 18 -17 5 -91 16 -95 75 -27 41 47 47 51 61 36 18 -18 23 -137 6
-137 -5 0 -10 -11 -10 -25 0 -24 3 -25 56 -25 l56 0 -7 50 c-6 47 -6 50 15 50
21 0 21 -3 15 -50 l-7 -50 56 0 c53 0 56 1 56 24 0 14 -4 28 -10 31 -5 3 -10
30 -10 60 0 30 5 57 10 60 6 3 10 17 10 31 0 23 -3 24 -56 24 l-56 0 6 -45 c7
-41 5 -45 -14 -45 -19 0 -21 4 -14 45 l6 45 -41 0 c-60 0 -42 16 25 23 78 8
127 42 151 105 13 36 33 62 78 99 124 105 188 193 226 313 27 83 29 259 5 370
-37 172 -136 314 -261 376 -53 26 -71 29 -150 29 -81 0 -97 -3 -159 -33 -94
-44 -180 -133 -235 -243 -23 -46 -44 -85 -46 -87 -1 -2 -21 32 -43 76 -54 107
-111 179 -185 228 -97 66 -192 86 -290 63z m416 -1316 c-7 -2 -19 -2 -25 0 -7
3 -2 5 12 5 14 0 19 -2 13 -5z m174 1 c-3 -3 -12 -4 -19 -1 -8 3 -5 6 6 6 11
1 17 -2 13 -5z m-177 -110 c0 -14 -5 -24 -11 -22 -6 2 -10 7 -10 11 1 4 1 14
1 22 0 8 5 15 10 15 6 0 10 -12 10 -26z"/>
<path d="M1995 645 l0 -115 93 0 92 0 0 45 c0 43 -1 45 -30 45 -23 0 -30 -4
-30 -20 0 -13 -7 -20 -20 -20 -26 0 -27 37 -2 56 16 13 16 15 0 28 -24 18 -23
46 2 46 13 0 20 -7 20 -20 0 -16 7 -20 30 -20 29 0 30 2 30 45 l0 45 -92 0
-93 0 0 -115z"/>
<path d="M2200 735 c0 -14 5 -25 10 -25 6 0 10 -28 10 -65 0 -37 -4 -65 -10
-65 -5 0 -10 -11 -10 -25 0 -24 3 -25 55 -25 58 0 81 18 56 43 -15 15 -14 60
2 55 6 -3 14 -24 17 -49 5 -43 6 -44 44 -47 64 -5 67 8 24 91 -6 12 -5 23 2
32 6 8 10 29 8 47 -4 44 -34 58 -130 58 -77 0 -78 0 -78 -25z m128 -47 c-5
-32 -28 -35 -28 -4 0 17 5 26 16 26 10 0 14 -7 12 -22z"/>
<path d="M2459 731 c-25 -26 -29 -37 -29 -86 0 -49 4 -60 29 -86 49 -48 146
-38 176 20 31 61 10 152 -41 171 -51 20 -103 12 -135 -19z m96 -86 c0 -49 -3
-60 -17 -63 -16 -3 -18 5 -18 63 0 58 2 66 18 63 14 -3 17 -14 17 -63z"/>
<path d="M286 738 c-3 -7 -16 -50 -30 -96 -14 -46 -26 -89 -26 -95 0 -8 15
-11 45 -9 45 4 56 17 34 39 -15 15 -3 33 21 33 24 0 36 -18 21 -33 -25 -25
-12 -37 44 -37 41 0 55 4 55 14 0 8 -4 17 -8 20 -5 3 -19 44 -32 91 l-23 85
-49 0 c-30 0 -50 -5 -52 -12z m54 -62 c0 -8 3 -21 6 -30 4 -12 0 -16 -16 -16
-16 0 -20 4 -16 16 3 9 6 22 6 30 0 8 5 14 10 14 6 0 10 -6 10 -14z"/>
<path d="M460 736 c0 -8 5 -18 11 -22 8 -5 10 -34 6 -90 l-5 -84 44 0 c32 0
44 4 44 14 0 8 -4 18 -10 21 -12 7 -14 85 -2 85 4 -1 24 -28 44 -60 36 -57 39
-60 78 -60 l40 0 0 74 c0 40 3 88 6 105 l7 31 -47 0 c-46 0 -59 -13 -35 -37 6
-6 9 -26 7 -44 l-3 -34 -39 58 -39 57 -53 0 c-40 0 -54 -4 -54 -14z"/>
<path d="M740 736 c0 -8 5 -18 10 -21 6 -3 10 -35 10 -70 0 -35 -4 -67 -10
-70 -5 -3 -10 -13 -10 -21 0 -10 14 -14 55 -14 41 0 55 4 55 14 0 8 -4 18 -10
21 -5 3 -10 35 -10 70 0 35 5 67 10 70 6 3 10 13 10 21 0 10 -14 14 -55 14
-41 0 -55 -4 -55 -14z"/>
<path d="M1380 474 c0 -2 12 -29 27 -59 l27 -55 28 52 c15 29 27 56 28 60 0 3
-25 6 -55 6 -30 -1 -55 -3 -55 -4z"/>
</g>
</svg>
